<svg width="100" height="100" viewBox="0 0 100 100" fill="none" xmlns="http://www.w3.org/2000/svg">
<g clip-path="url(#clip0_122_28)">
<path d="M99.9999 12.3596L87.6403 0L75.2105 12.3596L62.7807 0L34.2185 28.4927L40.4334 47.1375L62.7807 24.7894L75.2105 37.2192L52.8625 59.5665L71.5072 65.7814L99.9999 37.2192L87.6403 24.7894L99.9999 12.3596ZM91.7838 12.3596L75.2105 28.9322L71.067 24.7894L87.6403 8.21609L91.7838 12.3596ZM42.9938 36.29L40.9225 30.0751L62.7807 8.21609L71.0677 16.5024L66.9242 20.6459L62.7814 16.5024L42.9938 36.29ZM91.7838 37.2192L69.9248 59.0775L63.7099 57.0061L83.4975 37.2192L79.354 33.0757L83.4975 28.9322L91.7838 37.2192Z" fill="#005CA8"/>
<path d="M67.8528 69.4361L49.2088 63.2212L37.2192 75.2108L24.7894 62.7818L36.779 50.7914L30.5641 32.1475L0 62.781L12.3596 75.2108L0 87.6406L12.3596 100L24.7894 87.6406L37.2192 100L67.8528 69.4361ZM8.21609 62.781L28.0037 42.9942L30.0751 49.2091L16.5024 62.781L20.6459 66.9245L16.5031 71.0681L8.21609 62.781ZM8.21609 87.6406L24.7894 71.0681L28.9322 75.2108L12.3596 91.7834L8.21609 87.6406ZM33.0757 79.3543L37.2192 83.4979L50.7912 69.9252L57.0061 71.9966L37.2192 91.7841L28.9322 83.4979L33.0757 79.3543Z" fill="#005CA8"/>
<path d="M6.12946 30.0376L18.9659 30.4435L18.7805 36.2998L5.94482 35.8939L6.12946 30.0376Z" fill="#005CA8"/>
<path d="M93.8689 69.9653L81.0332 69.5594L81.2178 63.7031L94.0543 64.109L93.8689 69.9653Z" fill="#005CA8"/>
<path d="M35.8932 5.94238L36.2991 18.7781L30.4427 18.9635L30.0369 6.12778L35.8932 5.94238Z" fill="#005CA8"/>
<path d="M64.1075 94.0597L63.7017 81.224L69.558 81.0386L69.9639 93.875L64.1075 94.0597Z" fill="#005CA8"/>
<path d="M16.8542 12.7114L29.284 25.1405L25.1405 29.284L12.7114 16.8542L16.8542 12.7114Z" fill="#005CA8"/>
<path d="M83.1458 87.2894L70.7168 74.8603L74.8596 70.7168L87.2894 83.1466L83.1458 87.2894Z" fill="#005CA8"/>
</g>
<defs>
<clipPath id="clip0_122_28">
<rect width="100" height="100" fill="white"/>
</clipPath>
</defs>
</svg>
