<svg width="33" height="33" viewBox="0 0 33 33" fill="none" xmlns="http://www.w3.org/2000/svg">
<rect x="0.6875" y="0.6875" width="31.625" height="31.625" stroke="#005CA8" stroke-opacity="0.5" stroke-width="1.375"/>
<path d="M22 16.5C22 19.5375 19.5375 22 16.5 22C13.4624 22 11 19.5375 11 16.5C11 13.4624 13.4624 11 16.5 11C19.5375 11 22 13.4624 22 16.5ZM22 16.5V18.5625C22 20.461 23.539 22 25.4375 22C27.336 22 28.875 20.461 28.875 18.5625V16.5C28.875 9.66548 23.3346 4.125 16.5 4.125C9.66548 4.125 4.125 9.66548 4.125 16.5C4.125 23.3346 9.66548 28.875 16.5 28.875H22" stroke="white" stroke-width="2.75" stroke-linecap="round" stroke-linejoin="round"/>
</svg>
