<svg width="36" height="36" viewBox="0 0 36 36" fill="none" xmlns="http://www.w3.org/2000/svg">
<rect x="0.708333" y="0.708333" width="34.5833" height="34.5833" stroke="#005CA8" stroke-opacity="0.5" stroke-width="1.41667"/>
<path d="M24.9443 20.8351L25.6276 20.1558L24.041 18.5602L23.3579 19.2396L24.9443 20.8351ZM27.922 19.8712L30.7877 21.4291L31.8623 19.4524L28.9966 17.8946L27.922 19.8712ZM31.3394 24.5254L29.2085 26.6442L30.7949 28.2397L32.9258 26.121L31.3394 24.5254ZM27.9101 27.3264C25.7353 27.529 20.1085 27.3484 14.0163 21.2908L12.4299 22.8864C19.078 29.4967 25.4054 29.8196 28.1189 29.5667L27.9101 27.3264ZM14.0163 21.2908C8.20927 15.5168 7.24734 10.6603 7.12759 8.55338L4.88122 8.68104C5.03191 11.3328 6.22302 16.7148 12.4299 22.8864L14.0163 21.2908ZM16.0793 12.0204L16.5095 11.5926L14.9231 9.99713L14.4929 10.4249L16.0793 12.0204ZM16.852 6.13982L14.9605 3.61322L13.1594 4.96163L15.0508 7.48824L16.852 6.13982ZM8.59902 3.06329L6.24462 5.40432L7.83108 6.99984L10.1855 4.65881L8.59902 3.06329ZM15.2861 11.2227C14.4929 10.4249 14.4918 10.426 14.4907 10.427C14.4904 10.4274 14.4893 10.4285 14.4886 10.4292C14.4871 10.4307 14.4856 10.4322 14.4841 10.4338C14.481 10.4369 14.4779 10.4401 14.4747 10.4435C14.4682 10.4502 14.4613 10.4575 14.4541 10.4653C14.4396 10.481 14.4237 10.499 14.4067 10.5193C14.3727 10.5599 14.3341 10.6098 14.2936 10.6696C14.2125 10.7895 14.124 10.9479 14.0489 11.1472C13.8957 11.5537 13.8136 12.0897 13.9165 12.7534C14.1179 14.0513 15.0118 15.7657 17.3015 18.0424L18.8879 16.4469C16.7452 14.3163 16.2347 13.0197 16.1399 12.4084C16.0948 12.1175 16.1416 11.9744 16.1545 11.9405C16.1623 11.9195 16.166 11.9174 16.1564 11.9317C16.1516 11.9387 16.1437 11.9496 16.1312 11.9644C16.1251 11.9718 16.1177 11.9802 16.1092 11.9895C16.1048 11.9942 16.1003 11.9991 16.0952 12.0042C16.0928 12.0068 16.0903 12.0094 16.0876 12.0121C16.0862 12.0135 16.0849 12.0148 16.0835 12.0162C16.0829 12.0169 16.0819 12.018 16.0814 12.0183C16.0804 12.0194 16.0793 12.0204 15.2861 11.2227ZM17.3015 18.0424C19.592 20.3199 21.3145 21.2062 22.6145 21.4058C23.2789 21.5076 23.8145 21.4263 24.2209 21.275C24.4201 21.2007 24.5788 21.1132 24.6988 21.0329C24.7588 20.9926 24.8089 20.9544 24.8495 20.9206C24.8699 20.9038 24.8879 20.8881 24.9037 20.8737C24.9116 20.8665 24.919 20.8597 24.9257 20.8533C24.9292 20.85 24.9323 20.8468 24.9355 20.8438C24.937 20.8424 24.9385 20.8408 24.94 20.8393C24.9407 20.8386 24.9419 20.8375 24.9422 20.8372C24.9433 20.8362 24.9443 20.8351 24.1511 20.0373C23.3579 19.2396 23.359 19.2386 23.36 19.2375C23.3603 19.2372 23.3614 19.2361 23.3621 19.2354C23.3635 19.234 23.3648 19.2327 23.3662 19.2313C23.369 19.2288 23.3716 19.2262 23.3741 19.2237C23.3794 19.2188 23.3843 19.2142 23.389 19.2099C23.3983 19.2015 23.4067 19.1941 23.4142 19.1882C23.4289 19.1758 23.4398 19.168 23.4466 19.1634C23.4605 19.1541 23.4577 19.1583 23.4355 19.1665C23.3987 19.1802 23.2516 19.2271 22.9558 19.1817C22.3358 19.0868 21.0301 18.5767 18.8879 16.4469L17.3015 18.0424ZM14.9605 3.61322C13.4316 1.57083 10.425 1.24766 8.59902 3.06329L10.1855 4.65881C10.983 3.8658 12.3994 3.94652 13.1594 4.96163L14.9605 3.61322ZM7.12759 8.55338C7.09809 8.03421 7.3362 7.4919 7.83108 6.99984L6.24462 5.40432C5.43864 6.20573 4.80501 7.34018 4.88122 8.68104L7.12759 8.55338ZM29.2085 26.6442C28.7963 27.0541 28.3544 27.285 27.9101 27.3264L28.1189 29.5667C29.2208 29.4639 30.1237 28.9072 30.7949 28.2397L29.2085 26.6442ZM16.5095 11.5926C17.9863 10.1243 18.0961 7.80165 16.852 6.13982L15.0508 7.48824C15.656 8.29671 15.566 9.35787 14.9231 9.99713L16.5095 11.5926ZM30.7877 21.4291C32.0144 22.096 32.2055 23.6642 31.3394 24.5254L32.9258 26.121C34.9363 24.122 34.3163 20.7864 31.8623 19.4524L30.7877 21.4291ZM25.6276 20.1558C26.2036 19.5831 27.1307 19.4412 27.922 19.8712L28.9966 17.8946C27.3712 17.0109 25.354 17.2549 24.041 18.5602L25.6276 20.1558Z" fill="white"/>
</svg>
