<svg width="100" height="100" viewBox="0 0 100 100" fill="none" xmlns="http://www.w3.org/2000/svg">
<g clip-path="url(#clip0_49_74)">
<path d="M54.04 48.7905C56.9345 48.7905 59.282 51.138 59.282 54.0344C59.282 56.9305 56.9345 59.2783 54.04 59.2783C51.143 59.2783 48.7961 56.9305 48.7961 54.0344C48.7961 51.138 51.1433 48.7905 54.04 48.7905Z" fill="#005CA8"/>
<path d="M45.7583 67.5533C48.6529 67.5533 50.9994 65.2068 50.9994 62.3123C50.9994 59.4178 48.6529 57.0713 45.7583 57.0713C42.8638 57.0713 40.5173 59.4178 40.5173 62.3123C40.5173 65.2068 42.8638 67.5533 45.7583 67.5533Z" fill="#005CA8"/>
<path d="M41.3933 50.5325C39.3436 48.4856 36.0226 48.4875 33.9779 50.5325C31.9329 52.5813 31.9307 55.8981 33.9779 57.951C36.0229 59.9941 39.3474 59.9941 41.3933 57.951C43.4402 55.9003 43.4402 52.5813 41.3933 50.5325Z" fill="#005CA8"/>
<path d="M45.9651 40.7234C48.8611 40.7234 51.208 43.0712 51.208 45.9663C51.208 48.8605 48.8611 51.2083 45.9651 51.2083C43.07 51.2083 40.7222 48.8605 40.7222 45.9663C40.7219 43.0712 43.0697 40.7234 45.9651 40.7234Z" fill="#005CA8"/>
<path d="M62.5669 40.2693C65.4613 40.2693 67.8088 42.6161 67.8088 45.5122C67.8088 48.4076 65.4613 50.7551 62.5669 50.7551C59.6708 50.7551 57.323 48.4076 57.323 45.5122C57.323 42.6161 59.6708 40.2693 62.5669 40.2693Z" fill="#005CA8"/>
<path d="M96.4584 20.6732L79.3287 3.54671C74.6049 -1.18028 66.9156 -1.18028 62.1857 3.54671L3.54525 62.1856C-1.18175 66.9135 -1.18175 74.6022 3.54525 79.3286L20.6737 96.4541C25.3988 101.18 33.0865 101.18 37.8125 96.4541L96.4584 37.814C101.181 33.088 101.181 25.4002 96.4584 20.6732ZM44.5655 73.5609L26.4392 55.4374L55.4378 26.4425L73.5591 44.5657L44.5655 73.5609Z" fill="#005CA8"/>
<path d="M54.4934 42.6809C57.389 42.6809 59.7363 40.3336 59.7363 37.438C59.7363 34.5424 57.389 32.1951 54.4934 32.1951C51.5978 32.1951 49.2505 34.5424 49.2505 37.438C49.2505 40.3336 51.5978 42.6809 54.4934 42.6809Z" fill="#005CA8"/>
</g>
<defs>
<clipPath id="clip0_49_74">
<rect width="100" height="100" fill="white"/>
</clipPath>
</defs>
</svg>
