<svg width="100" height="101" viewBox="0 0 100 101" fill="none" xmlns="http://www.w3.org/2000/svg">
<path d="M50 13.4165C61.0417 16.5415 73.125 20.2915 79.1667 22.3748V55.0832C79.1667 62.1665 71.4583 74.6665 50 87.1665C28.5417 74.4582 20.8333 62.1665 20.8333 55.0832V22.3748C26.875 20.0832 38.9583 16.5415 50 13.4165ZM50 4.6665C50 4.6665 12.5 15.2915 12.5 17.1665V55.0832C12.5 74.2498 40.2083 91.1248 47.9167 95.7082C48.5333 96.1202 49.2583 96.3401 50 96.3401C50.7417 96.3401 51.4667 96.1202 52.0833 95.7082C60 91.3332 87.5 74.2498 87.5 55.0832V17.1665C87.5 15.2915 50 4.6665 50 4.6665Z" fill="#005CA8"/>
<path d="M40.8331 61.7498L30.4165 51.5415C29.6946 50.8037 29.2569 49.8345 29.1807 48.8051C29.1044 47.7758 29.3946 46.7526 29.9998 45.9165C30.337 45.4144 30.7848 44.9963 31.3088 44.6942C31.8328 44.3921 32.419 44.2141 33.0225 44.1739C33.626 44.1336 34.2307 44.2322 34.7901 44.4621C35.3496 44.6919 35.8489 45.047 36.2498 45.4998L43.7498 52.9998L63.7498 32.9998C64.5522 32.3981 65.5447 32.1059 66.5452 32.177C67.5456 32.2481 68.4869 32.6777 69.1961 33.3869C69.9053 34.0961 70.3349 35.0373 70.406 36.0378C70.4771 37.0383 70.1849 38.0308 69.5831 38.8332L46.6665 61.7498C46.2957 62.154 45.8449 62.4766 45.3428 62.6974C44.8408 62.9181 44.2983 63.0321 43.7498 63.0321C43.2013 63.0321 42.6589 62.9181 42.1568 62.6974C41.6547 62.4766 41.2039 62.154 40.8331 61.7498Z" fill="#005CA8"/>
</svg>
