<svg width="46" height="38" viewBox="0 0 46 38" fill="none" xmlns="http://www.w3.org/2000/svg">
<path d="M41.587 0.828155C35.6811 3.27423 10.3572 13.7637 3.36026 16.6226C-1.33222 18.4538 1.41482 20.1707 1.41482 20.1707C1.41482 20.1707 5.42042 21.544 8.85434 22.5741C12.2878 23.6042 14.119 22.4598 14.119 22.4598L30.2566 11.5869C35.9791 7.69551 34.6059 10.9 33.2321 12.2738C30.2566 15.2498 25.3351 19.9418 21.2148 23.7189C19.3836 25.3211 20.299 26.6944 21.1006 27.3813C24.0761 29.8994 32.2025 35.0498 32.6599 35.393C35.0777 37.1046 39.8335 39.5685 40.5569 34.3629L43.4182 16.3941C44.334 10.3283 45.2494 4.72 45.3636 3.11775C45.7073 -0.774085 41.587 0.828155 41.587 0.828155Z" fill="#1B92D1"/>
</svg>
