<svg width="48" height="48" viewBox="0 0 48 48" fill="none" xmlns="http://www.w3.org/2000/svg">
<g clip-path="url(#clip0_209_1297)">
<path d="M41.3108 27.6901C42.9031 29.2447 44.5835 30.7072 46.0116 32.4185C46.6425 33.179 47.2397 33.9636 47.6966 34.8462C48.344 36.1008 47.7576 37.4813 46.6327 37.5562L39.6399 37.5531C37.8364 37.7027 36.3976 36.9767 35.1878 35.7435C34.2197 34.7573 33.323 33.7078 32.3921 32.6884C32.0105 32.2717 31.611 31.8797 31.1338 31.5697C30.1792 30.9502 29.3506 31.1398 28.805 32.1354C28.2495 33.1481 28.1234 34.2694 28.0688 35.3979C27.9939 37.0446 27.4962 37.4775 25.8422 37.5529C22.3073 37.7196 18.9526 37.1848 15.836 35.4016C13.0884 33.8296 10.9579 31.6102 9.10329 29.0978C5.4927 24.2057 2.72754 18.8299 0.24242 13.3035C-0.316986 12.0584 0.0921386 11.3901 1.46595 11.3663C3.74717 11.322 6.02811 11.3252 8.31205 11.3632C9.23923 11.3767 9.85301 11.9085 10.211 12.7844C11.4453 15.8192 12.9555 18.7065 14.8511 21.3828C15.356 22.0953 15.8707 22.8079 16.6037 23.3093C17.4146 23.8646 18.032 23.6806 18.4135 22.7772C18.6556 22.2044 18.7616 21.5874 18.8162 20.974C18.9969 18.8634 19.0207 16.7564 18.7038 14.6532C18.5091 13.3406 17.7698 12.4909 16.46 12.2425C15.7917 12.1159 15.8912 11.8672 16.2148 11.4857C16.7768 10.8277 17.3055 10.4182 18.3593 10.4182H26.2623C27.5064 10.6637 27.7827 11.2226 27.953 12.4745L27.9598 21.2529C27.9462 21.7375 28.2019 23.1757 29.0748 23.4965C29.7734 23.7248 30.2339 23.1659 30.6531 22.7229C32.5453 20.7147 33.8958 18.3413 35.1022 15.8838C35.6376 14.8031 36.098 13.6809 36.5442 12.5596C36.8748 11.7276 37.3935 11.3182 38.3307 11.3362L45.9368 11.343C46.1624 11.343 46.3906 11.3463 46.609 11.3837C47.8907 11.6021 48.242 12.1535 47.846 13.405C47.2223 15.3686 46.0087 17.005 44.8221 18.6489C43.5537 20.404 42.197 22.0991 40.9392 23.8646C39.7835 25.4771 39.8752 26.2897 41.3108 27.6901Z" fill="#436EAB"/>
</g>
<defs>
<clipPath id="clip0_209_1297">
<rect width="48" height="48" fill="white"/>
</clipPath>
</defs>
</svg>
