<svg width="35" height="35" viewBox="0 0 35 35" fill="none" xmlns="http://www.w3.org/2000/svg">
<rect x="0.8125" y="0.8125" width="33.375" height="33.375" stroke="#005CA8" stroke-opacity="0.5" stroke-width="1.625"/>
<path fill-rule="evenodd" clip-rule="evenodd" d="M34.1322 24.5945C33.339 22.9969 32.2938 21.5375 31.0369 20.2724C30.6092 19.7751 30.1076 19.2844 29.7161 18.9014L29.6614 18.8479C29.4594 18.6502 29.2926 18.4861 29.1561 18.3448C30.8747 15.9549 32.3458 13.3959 33.546 10.7071L33.5944 10.5986L33.6284 10.4847C33.786 9.95553 33.9677 8.94918 33.325 8.03972C32.6608 7.0997 31.597 6.93017 30.8848 6.93017H27.6078C26.9247 6.89886 26.2482 7.08354 25.675 7.45902C25.0975 7.83733 24.6558 8.38915 24.4127 9.0342C23.707 10.7152 22.824 12.3141 21.7797 13.8042V9.96402C21.7797 9.46761 21.733 8.63722 21.2015 7.93635C20.565 7.09717 19.6447 6.93017 19.0058 6.93017H13.8061C13.1362 6.91468 12.4846 7.15422 11.9839 7.60137C11.4712 8.05929 11.1569 8.69894 11.1079 9.38468L11.1032 9.44963V9.51476C11.1032 10.2228 11.3838 10.745 11.6079 11.0734C11.7082 11.2205 11.8156 11.3543 11.8834 11.4389L11.899 11.4584C11.9713 11.5486 12.0196 11.6087 12.068 11.6746C12.1954 11.8479 12.3786 12.115 12.4304 12.8064V14.9544C11.534 13.4808 10.5884 11.5199 9.87686 9.42553L9.86594 9.39338L9.85383 9.36167C9.67643 8.89701 9.39188 8.22093 8.82197 7.70356C8.1562 7.09915 7.36873 6.93017 6.65257 6.93017H3.32765C2.60313 6.93017 1.72969 7.09967 1.07797 7.78716C0.437088 8.46323 0.364502 9.27332 0.364502 9.70404V9.89819L0.405392 10.088C1.32634 14.3625 3.22394 18.3655 5.94913 21.7838C7.18466 23.7322 8.85883 25.3653 10.8384 26.5523C12.8496 27.7583 15.1186 28.4691 17.4584 28.6263L17.5193 28.6304H17.5806C18.639 28.6304 19.7425 28.5391 20.5723 27.9861C21.6918 27.2402 21.7797 26.0945 21.7797 25.5236V23.8641C22.067 24.0963 22.4234 24.409 22.8597 24.8291C23.3872 25.357 23.8072 25.8145 24.1674 26.2138L24.3596 26.4276L24.3608 26.4288C24.6405 26.7403 24.9158 27.0469 25.1665 27.2989C25.4817 27.6157 25.8702 27.9648 26.3586 28.2227C26.8874 28.5019 27.4424 28.6282 28.032 28.6282H31.3592C32.0601 28.6282 33.0654 28.4624 33.7723 27.643C34.5426 26.7499 34.4838 25.6553 34.2416 24.8686L34.198 24.7272L34.1322 24.5945ZM25.7916 24.7485C25.4171 24.3333 24.9654 23.8411 24.3946 23.2704L24.39 23.2658C22.4123 21.359 21.4882 21.0268 20.8348 21.0268C20.4873 21.0268 20.1028 21.0659 19.8532 21.3767C19.7354 21.5234 19.6736 21.7004 19.6389 21.8849C19.6041 22.0691 19.5922 22.2853 19.5922 22.5317V25.5236C19.5922 25.8952 19.5311 26.0512 19.3593 26.1658C19.1303 26.3184 18.6411 26.442 17.5928 26.4429C15.6031 26.3073 13.6738 25.7019 11.9633 24.6763C10.2493 23.6486 8.80401 22.2283 7.7464 20.5326L7.73489 20.5142L7.72127 20.4971C5.18192 17.3365 3.41246 13.6288 2.55244 9.66711C2.55711 9.47613 2.59848 9.36283 2.66552 9.2921C2.7346 9.21923 2.90199 9.11767 3.32765 9.11767H6.65257C7.02244 9.11767 7.21386 9.19813 7.35162 9.32319C7.50781 9.46499 7.64328 9.70577 7.80785 10.1357C8.62395 12.5361 9.72756 14.7809 10.7726 16.4314C11.295 17.2564 11.809 17.9432 12.2722 18.4283C12.5034 18.6707 12.7302 18.8714 12.9466 19.0142C13.156 19.1523 13.3935 19.2612 13.6376 19.2612C13.7665 19.2612 13.9172 19.2479 14.0623 19.1836C14.2184 19.1146 14.3396 18.9994 14.4251 18.845C14.5765 18.572 14.618 18.1676 14.618 17.6378V12.7324L14.6172 12.7209C14.5416 11.5275 14.1813 10.8561 13.8305 10.3789C13.7536 10.2743 13.6778 10.1798 13.6114 10.0972L13.5932 10.0745C13.5204 9.98366 13.4624 9.91025 13.4148 9.84044C13.3275 9.71253 13.2937 9.62335 13.2909 9.52778C13.3023 9.41435 13.3557 9.30911 13.441 9.23295C13.5295 9.15391 13.6453 9.11276 13.7639 9.11767H19.0058C19.3064 9.11767 19.4076 9.191 19.4585 9.25817C19.5304 9.35299 19.5922 9.5502 19.5922 9.96402V16.5682C19.5922 17.3527 19.9539 17.8838 20.479 17.8838C21.0833 17.8838 21.5189 17.5172 22.2808 16.7553L22.2935 16.7427L22.3048 16.7287C24.0123 14.6466 25.4077 12.3269 26.4464 9.84259L26.4529 9.82397C26.5311 9.60445 26.6788 9.41651 26.8738 9.28882C27.0686 9.16114 27.2999 9.10073 27.5324 9.11681L27.5451 9.11767H30.8848C31.3402 9.11767 31.4901 9.23359 31.5386 9.30215C31.59 9.37508 31.6259 9.5314 31.5384 9.83796C30.341 12.5161 28.8602 15.0581 27.122 17.4215L27.1111 17.4381C26.9423 17.6963 26.7573 17.9818 26.7304 18.3096C26.7017 18.6617 26.8541 18.9818 27.1205 19.3248C27.3148 19.6119 27.7154 20.0041 28.1218 20.4019L28.1602 20.4394C28.5863 20.8565 29.0479 21.3083 29.4184 21.7458L29.4284 21.7573L29.4391 21.7681C30.5438 22.87 31.4624 24.1438 32.1591 25.5398C32.2704 25.9198 32.2023 26.114 32.1158 26.2142C32.0147 26.3315 31.7881 26.4407 31.3592 26.4407H28.032C27.7721 26.4407 27.5716 26.3895 27.38 26.2883C27.1803 26.1829 26.975 26.0152 26.7175 25.7563C26.5101 25.5478 26.2835 25.2955 26.007 24.9879C25.9384 24.9117 25.8668 24.8317 25.7916 24.7485Z" fill="white"/>
</svg>
