<svg width="34" height="33" viewBox="0 0 34 33" fill="none" xmlns="http://www.w3.org/2000/svg">
<path d="M29.4598 6.07566V6.03123H29.4282C27.9021 4.1472 25.9758 2.62816 23.7897 1.58478C21.6037 0.541413 19.2129 0 16.7916 0C14.3703 0 11.9795 0.541413 9.79345 1.58478C7.60739 2.62816 5.68112 4.1472 4.15501 6.03123H4.12493V6.07566C1.77103 8.97863 0.486084 12.6053 0.486084 16.346C0.486084 20.0868 1.77103 23.7135 4.12493 26.6164V26.6609H4.15659C5.6827 28.5449 7.60897 30.0639 9.79504 31.1073C11.9811 32.1507 14.3719 32.6921 16.7932 32.6921C19.2145 32.6921 21.6052 32.1507 23.7913 31.1073C25.9774 30.0639 27.9037 28.5449 29.4298 26.6609H29.463V26.6164C31.8169 23.7135 33.1018 20.0868 33.1018 16.346C33.1018 12.6053 31.8169 8.97863 29.463 6.07566H29.4598ZM17.5833 6.03123V1.70218C18.5215 2.09682 19.3652 2.68689 20.0586 3.43324C20.7519 4.17959 21.279 5.06516 21.6049 6.03123H17.5833ZM22.2303 7.61812C23.078 10.1794 23.5333 12.8546 23.5809 15.5526H17.5833V7.61812H22.2303ZM15.9999 1.70218V6.03123H11.9783C12.3041 5.06516 12.8312 4.17959 13.5246 3.43324C14.2179 2.68689 15.0617 2.09682 15.9999 1.70218ZM15.9999 7.61812V15.5526H10.0023C10.0499 12.8546 10.5052 10.1794 11.3528 7.61812H15.9999ZM8.42051 15.5526H2.10776C2.2578 12.6863 3.2444 9.92737 4.94509 7.61812H9.66976C8.88099 10.1905 8.46144 12.8618 8.42051 15.5526ZM8.42051 17.1395C8.46093 19.8302 8.88153 22.5016 9.66976 25.074H4.94509C3.2444 22.7647 2.2578 20.0057 2.10776 17.1395H8.42051ZM10.0038 17.1395H15.9999V25.074H11.3528C10.5052 22.5127 10.0499 19.8375 10.0023 17.1395H10.0038ZM15.9999 26.6609V30.9899C15.0617 30.5953 14.2179 30.0052 13.5246 29.2589C12.8312 28.5125 12.3041 27.6269 11.9783 26.6609H15.9999ZM17.5833 30.9899V26.6609H21.6049C21.279 27.6269 20.7519 28.5125 20.0586 29.2589C19.3652 30.0052 18.5215 30.5953 17.5833 30.9899ZM17.5833 25.074V17.1395H23.5809C23.5333 19.8375 23.078 22.5127 22.2303 25.074H17.5833ZM25.1627 17.1395H31.4754C31.3254 20.0057 30.3388 22.7647 28.6381 25.074H23.9134C24.7022 22.5016 25.1217 19.8303 25.1627 17.1395ZM25.1627 15.5526C25.1223 12.8619 24.7017 10.1905 23.9134 7.61812H28.6381C30.3388 9.92737 31.3254 12.6863 31.4754 15.5526H25.1627ZM27.3033 6.03123H23.3434C22.7972 4.64548 22.0263 3.35971 21.0618 2.22585C23.4281 2.94906 25.5746 4.25775 27.3033 6.03123ZM12.5213 2.22585C11.5575 3.35983 10.7871 4.64559 10.2413 6.03123H6.27826C8.00704 4.25775 10.1535 2.94906 12.5198 2.22585H12.5213ZM6.27984 26.6609H10.2398C10.786 28.0466 11.5569 29.3324 12.5213 30.4662C10.1551 29.743 8.00862 28.4343 6.27984 26.6609ZM21.0618 30.4662C22.0257 29.3323 22.7961 28.0465 23.3418 26.6609H27.3033C25.5746 28.4343 23.4281 29.743 21.0618 30.4662Z" fill="white"/>
<path d="M23.5744 2.03602C25.6553 3.02921 27.4934 4.46713 28.9598 6.24822V6.57566H29.2224C31.41 9.35778 32.6018 12.799 32.6018 16.346C32.6018 19.9722 31.3562 23.4877 29.0746 26.3015L28.963 26.4392V26.4419C27.4963 28.2239 25.6576 29.6625 23.5759 30.6561C21.4571 31.6674 19.1399 32.1921 16.7932 32.1921C14.4464 32.1921 12.1292 31.6674 10.0104 30.6561C7.92949 29.6629 6.09135 28.225 4.62493 26.4439V26.4392L4.51329 26.3015C2.23169 23.4877 0.986084 19.9722 0.986084 16.346C0.986084 12.7199 2.23169 9.20439 4.51329 6.39057L4.62493 6.2529V6.2463C6.09109 4.46609 7.92865 3.02885 10.0088 2.03602C12.1277 1.02474 14.4449 0.5 16.7916 0.5C19.1383 0.5 21.4555 1.02474 23.5744 2.03602ZM17.0833 6.03123V6.53123H17.5833H21.6049H22.3013L22.0787 5.87141C21.7302 4.83831 21.1665 3.8912 20.4249 3.09293C19.6833 2.29465 18.7808 1.66346 17.7771 1.24129L17.0833 0.949426V1.70218V6.03123ZM22.705 7.46103L22.5915 7.11812H22.2303H17.5833H17.0833V7.61812V15.5526V16.0526H17.5833H23.5809H24.0898L24.0808 15.5438C24.0324 12.7953 23.5685 10.0701 22.705 7.46103ZM16.4999 1.70218V0.949426L15.8061 1.24129C14.8024 1.66346 13.8999 2.29465 13.1583 3.09293C12.4167 3.8912 11.853 4.83831 11.5045 5.87141L11.2819 6.53123H11.9783H15.9999H16.4999V6.03123V1.70218ZM16.4999 7.61812V7.11812H15.9999H11.3528H10.9916L10.8782 7.46103C10.0147 10.0701 9.55082 12.7953 9.50234 15.5438L9.49336 16.0526H10.0023H15.9999H16.4999V15.5526V7.61812ZM8.42051 16.0526H8.91296L8.92045 15.5602C8.96067 12.9164 9.3729 10.2918 10.1478 7.7647L10.3461 7.11812H9.66976H4.94509H4.69236L4.54249 7.32162C2.78377 9.70965 1.76359 12.5626 1.60844 15.5265L1.5809 16.0526H2.10776H8.42051ZM8.92045 17.132L8.91305 16.6395H8.42051H2.10776H1.5809L1.60844 17.1656C1.76359 20.1294 2.78377 22.9824 4.54249 25.3705L4.69236 25.574H4.94509H9.66976H10.3459L10.1478 24.9275C9.3734 22.4001 8.96016 19.7756 8.92045 17.132ZM16.4999 17.1395V16.6395H15.9999H10.0038H10.0023H9.49336L9.50234 17.1483C9.55082 19.8967 10.0147 22.6219 10.8782 25.2311L10.9916 25.574H11.3528H15.9999H16.4999V25.074V17.1395ZM16.4999 26.6609V26.1609H15.9999H11.9783H11.2819L11.5045 26.8207C11.853 27.8538 12.4167 28.8009 13.1583 29.5992C13.8999 30.3974 14.8024 31.0286 15.8061 31.4508L16.4999 31.7427V30.9899V26.6609ZM17.0833 30.9899V31.7427L17.7771 31.4508C18.7808 31.0286 19.6833 30.3974 20.4249 29.5992C21.1665 28.8009 21.7302 27.8538 22.0787 26.8207L22.3013 26.1609H21.6049H17.5833H17.0833V26.6609V30.9899ZM17.0833 25.074V25.574H17.5833H22.2303H22.5915L22.705 25.2311C23.5685 22.6219 24.0324 19.8967 24.0808 17.1483L24.0898 16.6395H23.5809H17.5833H17.0833V17.1395V25.074ZM25.1627 16.6395H24.6702L24.6627 17.1319C24.6225 19.7757 24.2103 22.4003 23.4354 24.9274L23.2371 25.574H23.9134H28.6381H28.8908L29.0407 25.3705C30.7994 22.9824 31.8196 20.1294 31.9747 17.1656L32.0023 16.6395H31.4754H25.1627ZM24.6627 15.5601L24.6701 16.0526H25.1627H31.4754H32.0023L31.9747 15.5265C31.8196 12.5626 30.7994 9.70966 29.0407 7.32162L28.8908 7.11812H28.6381H23.9134H23.2373L23.4354 7.76461C24.2098 10.292 24.623 12.9165 24.6627 15.5601ZM27.3033 6.53123H28.489L27.6614 5.68221C25.874 3.84862 23.6547 2.49549 21.208 1.74769L19.5739 1.24824L20.681 2.5498C21.6098 3.64173 22.3522 4.87999 22.8783 6.21458L23.0031 6.53123H23.3434H27.3033ZM12.9023 2.54968L13.6026 1.72585H12.5213H12.5198H12.4451L12.3736 1.74769C9.92693 2.49549 7.7076 3.84862 5.92022 5.68221L5.09261 6.53123H6.27826H10.2413H10.5818L10.7066 6.21446C11.2322 4.87997 11.9741 3.64171 12.9023 2.54968ZM6.27984 26.1609H5.09419L5.92181 27.0099C7.70918 28.8435 9.92851 30.1966 12.3752 30.9444L14.0093 31.4438L12.9022 30.1423C11.9734 29.0504 11.231 27.8121 10.7049 26.4775L10.5801 26.1609H10.2398H6.27984ZM20.6809 30.1424L19.5749 31.4435L21.208 30.9444C23.6547 30.1966 25.874 28.8435 27.6614 27.0099L28.489 26.1609H27.3033H23.3418H23.0014L22.8766 26.4776C22.351 27.8121 21.6091 29.0504 20.6809 30.1424Z" stroke="white" stroke-opacity="0.5"/>
</svg>
