<svg width="35" height="35" viewBox="0 0 35 35" fill="none" xmlns="http://www.w3.org/2000/svg">
<path d="M19.7228 1.29213C19.6806 1.268 19.6381 1.24421 19.5954 1.22077C19.6204 1.224 19.6454 1.22729 19.6704 1.23064L19.7228 1.29213ZM14.8753 1.2971C15.0496 1.26884 15.2243 1.24339 15.3995 1.22077C15.3539 1.24582 15.3085 1.27126 15.2634 1.2971H14.8753ZM15.399 33.7789C15.3741 33.7757 15.3492 33.7724 15.3243 33.7691L15.2721 33.7079C15.3142 33.7319 15.3565 33.7556 15.399 33.7789ZM19.6714 33.7695C19.6459 33.7729 19.6204 33.7762 19.5948 33.7795C19.6384 33.7556 19.6817 33.7313 19.7249 33.7067L19.6714 33.7695Z" fill="black" stroke="#1E1E1E" stroke-width="2.17178"/>
</svg>
