<svg width="100" height="100" viewBox="0 0 100 100" fill="none" xmlns="http://www.w3.org/2000/svg">
<path d="M43.815 67.9001C44.6282 67.0882 45.5934 66.4444 46.6554 66.0055C47.7174 65.5666 48.8554 65.3412 50.0046 65.3421C51.1537 65.343 52.2914 65.5703 53.3527 66.0109C54.414 66.4515 55.3781 67.0968 56.19 67.9101C57.0019 68.7233 57.6457 69.6884 58.0846 70.7504C58.5235 71.8124 58.7489 72.9505 58.7479 74.0996C58.747 75.2488 58.5198 76.3864 58.0792 77.4477C57.6385 78.509 56.9932 79.4732 56.18 80.2851C54.537 81.9248 52.3099 82.8446 49.9887 82.8423C47.6674 82.8399 45.4422 81.9156 43.8025 80.2726C42.1628 78.6295 41.2429 76.4025 41.2453 74.0812C41.2476 71.76 42.172 69.5398 43.815 67.9001ZM17 54.1251C35.2 35.9251 64.8 35.9251 83 54.1251L74.75 62.3751C68.1816 55.8191 59.2804 52.137 50 52.137C40.7196 52.137 31.8184 55.8191 25.25 62.3751L17 54.1251ZM0.5 37.6251C27.8 10.3301 72.2 10.3301 99.5 37.6251L91.25 45.8751C68.5 23.1251 31.5 23.1251 8.75 45.8751L0.5 37.6251Z" fill="#005CA8"/>
</svg>
