<svg width="48" height="48" viewBox="0 0 48 48" fill="none" xmlns="http://www.w3.org/2000/svg">
<path fill-rule="evenodd" clip-rule="evenodd" d="M19.044 30.2699L19.0425 16.6877L32.0115 23.5023L19.044 30.2699ZM47.52 14.3342C47.52 14.3342 47.0505 11.0032 45.612 9.53638C43.7865 7.61031 41.7405 7.60123 40.803 7.48944C34.086 6.99999 24.0105 7 24.0105 7H23.9895C23.9895 7 13.914 6.99999 7.19701 7.48944C6.25801 7.60123 4.21351 7.61031 2.38651 9.53638C0.948005 11.0032 0.479996 14.3342 0.479996 14.3342C0.479996 14.3342 0 18.2467 0 22.1578V25.8256C0 29.7382 0.479996 33.6492 0.479996 33.6492C0.479996 33.6492 0.948005 36.9802 2.38651 38.447C4.21351 40.3731 6.61199 40.3127 7.67999 40.5136C11.52 40.8852 24 41 24 41C24 41 34.086 40.9849 40.803 40.4955C41.7405 40.3822 43.7865 40.3731 45.612 38.447C47.0505 36.9802 47.52 33.6492 47.52 33.6492C47.52 33.6492 48 29.7382 48 25.8256V22.1578C48 18.2467 47.52 14.3342 47.52 14.3342Z" fill="#CE1312"/>
</svg>
