<svg width="32" height="32" viewBox="0 0 32 32" fill="none" xmlns="http://www.w3.org/2000/svg">
<rect x="0.5" y="0.5" width="31" height="31" stroke="#005CA8" stroke-opacity="0.5"/>
<path d="M30.722 24.579C30.137 25.894 28.628 27.085 27.211 27.348C27.066 27.375 23.603 28 16.01 28H15.99C8.39798 28 4.93198 27.375 4.78798 27.349C3.37098 27.085 1.86098 25.894 1.27498 24.578C1.22298 24.461 0.000976562 21.647 0.000976562 16C0.000976562 10.353 1.22298 7.538 1.27498 7.421C1.86098 6.105 3.37098 4.915 4.78798 4.652C4.93198 4.625 8.39798 4 15.99 4C23.603 4 27.066 4.625 27.21 4.651C28.628 4.915 30.137 6.105 30.723 7.42C30.775 7.538 32 10.353 32 16C32 21.647 30.775 24.461 30.722 24.579ZM28.893 8.23C28.581 7.529 27.603 6.759 26.845 6.618C26.813 6.612 23.386 6 16.01 6C8.61498 6 5.18498 6.612 5.15198 6.618C4.39398 6.759 3.41698 7.529 3.10398 8.234C3.09398 8.255 2.00198 10.829 2.00198 16C2.00198 21.17 3.09398 23.744 3.10598 23.77C3.41698 24.471 4.39398 25.241 5.15298 25.382C5.18498 25.388 8.61498 26 15.99 26H16.01C23.386 26 26.813 25.388 26.846 25.382C27.604 25.241 28.581 24.471 28.894 23.766C28.904 23.744 29.998 21.17 29.998 16C29.998 10.83 28.904 8.255 28.893 8.23ZM13.541 21.846C13.379 21.949 13.193 22 13.008 22C12.842 22 12.676 21.959 12.525 21.875C12.206 21.699 12.008 21.364 12.008 21V11C12.008 10.637 12.204 10.303 12.521 10.127C12.838 9.95 13.227 9.958 13.534 10.149L21.553 15.105C21.846 15.286 22.026 15.606 22.027 15.951C22.028 16.296 21.852 16.618 21.56 16.801L13.541 21.846ZM14.009 12.794V19.189L19.137 15.963L14.009 12.794Z" fill="white"/>
</svg>
